# xmcd CD database file
#
# Track frame offsets:
#	150
#	17890
#	35440
#	50132
#	68497
#	86575
#	101017
#	120050
#	136752
#	154112
#
# Disc length: 2336 seconds
#
# Revision: 1
# Processed by: cddbd v1.5.2PL0 Copyright (c) Steve Scherf et al.
# Submitted via: CDex 1.70beta2
#
DISCID=76091e0a
DTITLE=GONTITI - Legacy of Madam Q
DYEAR=1987
DGENRE=Instrumental
TTITLE0=貧しい王家
TTITLE1=大陸風に向かって
TTITLE2=Foolish Parade
TTITLE3=バスで見た女
TTITLE4=Little toy
TTITLE5=僕の誤解
TTITLE6=Watchdog in the afternoon
TTITLE7=Blue Flame
TTITLE8=もう少しここで
TTITLE9=mica
EXTD=YEAR: 1987
EXTT0=
EXTT1=
EXTT2=
EXTT3=
EXTT4=
EXTT5=
EXTT6=
EXTT7=
EXTT8=
EXTT9=
PLAYORDER=
